<svg width="65" height="64" viewBox="0 0 65 64" fill="none" xmlns="http://www.w3.org/2000/svg">
<path d="M17.1769 56.5L7.17691 45L52.6769 10.5L17.1769 56.5Z" fill="#E76F51"/>
<path d="M7.17691 45L17.1769 21.5L52.6769 10.5L7.17691 45Z" fill="#F4A261"/>
<path d="M17.1769 56.5L52.6769 10.5L43.1769 43.5L17.1769 56.5Z" fill="#F4A261"/>
<path d="M17.3537 41.0977C17.2934 41.8681 17.5922 42.4717 17.5583 43.4103C17.5244 44.3489 17.3697 44.4907 17.4135 45.565C17.4573 46.6393 17.3595 47.7153 17.4274 48.1932C17.4954 48.6711 17.3021 48.7232 17.3506 49.4023C17.3992 50.0813 17.3773 50.4933 17.3191 51.088C17.261 51.6827 17.2221 53.5087 17.3049 54.1719C17.3876 54.8351 17.2596 55.5933 17.2315 56.0489C17.2227 56.1908 17.21 56.3025 17.1966 56.3882C17.1909 56.4245 17.1786 56.4413 17.1662 56.4414C17.1662 56.4414 17.1662 56.4414 17.1662 56.4414C17.1508 56.4416 17.1354 56.4157 17.1331 56.3691C17.1218 56.1431 17.0942 55.8053 17.0351 55.4065C16.925 54.6628 17.0393 54.5805 16.9777 53.5756C16.916 52.5708 16.8042 51.9676 16.8637 50.7842C16.9232 49.6008 16.6317 49.3315 16.7821 47.6604C16.9324 45.9894 16.6284 45.8161 16.5747 44.1525C16.5209 42.489 16.6707 40.3872 16.6487 39.3843C16.6267 38.3814 16.5805 37.0345 16.6088 35.6123C16.6372 34.1901 16.5221 32.4356 16.5806 30.8654C16.639 29.2953 16.7109 27.0755 16.7629 26.0499C16.8148 25.0243 16.8264 24.7743 16.7815 23.7879C16.7557 23.2209 16.7693 22.4393 16.8418 21.7787C16.8783 21.4463 16.9335 21.5211 16.9623 21.8552C17.0045 22.3438 16.9822 22.7453 17.0525 22.9966C17.1929 23.4989 17.2469 23.7124 17.1727 24.3484C17.0986 24.9845 17.2813 25.2824 17.2636 25.653C17.2458 26.0236 17.1395 26.0184 17.2367 27.9011C17.334 29.7839 17.3633 30.8162 17.3887 31.5293C17.4142 32.2424 17.3341 33.7325 17.3768 34.8946C17.4196 36.0567 17.4083 38.4201 17.4706 39.3723C17.5329 40.3244 17.4139 40.3274 17.3537 41.0977ZM31.9532 33.4371C32.4973 33.966 33.1442 34.1139 33.8323 34.7279C34.5204 35.3419 34.5289 35.5499 35.3691 36.189C36.2093 36.828 36.9605 37.5774 37.3652 37.8244C37.7699 38.0714 37.686 38.2529 38.2304 38.6408C38.7748 39.0287 39.0723 39.3036 39.4849 39.7209C39.8975 40.1381 41.2533 41.3117 41.8075 41.6634C42.3617 42.015 42.8533 42.5885 43.1799 42.8955C43.2816 42.9911 43.358 43.0709 43.4142 43.1349C43.438 43.162 43.4429 43.1821 43.4351 43.1917C43.4351 43.1917 43.4351 43.1917 43.4351 43.1917C43.4253 43.2036 43.396 43.1992 43.3593 43.1719C43.1812 43.039 42.9082 42.8487 42.5689 42.6444C41.9364 42.2635 41.9471 42.1239 41.148 41.542C40.3489 40.9601 39.8216 40.6684 38.9647 39.8814C38.1079 39.0944 37.7184 39.1502 36.5508 37.9878C35.3832 36.8254 35.0583 36.951 33.7662 35.9504C32.4741 34.9499 30.9805 33.5182 30.2082 32.907C29.4358 32.2957 28.388 31.4878 27.3307 30.5751C26.2734 29.6625 24.8735 28.6523 23.7236 27.6238C22.5737 26.5954 20.9412 25.1497 20.1988 24.4673C19.4565 23.7849 19.2748 23.6194 18.5004 23.0362C18.0552 22.7009 17.473 22.201 17.0197 21.7313C16.7916 21.495 16.8834 21.4994 17.1544 21.6864C17.5507 21.9599 17.8401 22.2286 18.0749 22.3319C18.5442 22.5383 18.7401 22.6304 19.1737 23.0859C19.6074 23.5414 19.9491 23.5873 20.218 23.833C20.4869 24.0788 20.4151 24.1575 21.9007 25.2618C23.3863 26.3661 24.1855 26.9901 24.7409 27.4171C25.2963 27.8441 26.3718 28.8391 27.2778 29.534C28.1838 30.229 29.9635 31.7179 30.7232 32.2663C31.4828 32.8147 31.4092 32.9082 31.9532 33.4371ZM12.3673 31.8432C12.6411 31.3466 12.536 30.8252 12.8332 30.205C13.1304 29.5848 13.3135 29.5483 13.5773 28.8069C13.8411 28.0655 14.2363 27.3771 14.3089 27.0287C14.3815 26.6803 14.5748 26.7191 14.7223 26.2425C14.8698 25.7659 15.0068 25.4964 15.2289 25.1174C15.4511 24.7385 16.0042 23.5217 16.1156 23.0427C16.227 22.5637 16.5601 22.1012 16.7151 21.8046C16.7634 21.7122 16.8067 21.6417 16.8434 21.589C16.8589 21.5667 16.8752 21.5601 16.8866 21.5648C16.8866 21.5648 16.8866 21.5648 16.8866 21.5648C16.9009 21.5706 16.9077 21.5939 16.8967 21.6262C16.8431 21.783 16.773 22.0214 16.7146 22.313C16.6057 22.8567 16.4767 22.8685 16.2491 23.57C16.0214 24.2714 15.9539 24.721 15.5637 25.4965C15.1735 26.272 15.3665 26.5652 14.7543 27.6349C14.1421 28.7046 14.3738 28.9377 13.9523 30.0804C13.5308 31.2232 12.797 32.5836 12.5333 33.2685C12.2696 33.9535 11.9308 34.8797 11.5017 35.8282C11.0727 36.7767 10.682 38.0042 10.1833 39.041C9.68451 40.0778 8.98932 41.5477 8.65081 42.2197C8.31231 42.8916 8.23082 43.0558 7.99287 43.7384C7.8561 44.1307 7.62217 44.6527 7.36806 45.0706C7.24017 45.2809 7.21038 45.2093 7.27837 44.9729C7.37781 44.6272 7.51209 44.3649 7.51838 44.1685C7.53092 43.776 7.54147 43.6113 7.79016 43.2106C8.03883 42.8099 7.95441 42.5391 8.07576 42.2959C8.19713 42.0527 8.29394 42.0969 8.73737 40.7897C9.1808 39.4825 9.44613 38.7749 9.62458 38.2842C9.80303 37.7934 10.2991 36.8189 10.5888 36.0187C10.8785 35.2184 11.5583 33.6285 11.7705 32.9624C11.9826 32.2963 12.0934 32.3398 12.3673 31.8432ZM36.9719 14.9589C37.7869 14.7737 38.3252 14.2975 39.3068 14.0342C40.2884 13.7708 40.4801 13.8742 41.5796 13.4937C42.6791 13.1132 43.8215 12.8678 44.2966 12.6521C44.7716 12.4365 44.8816 12.605 45.5706 12.3446C46.2595 12.0841 46.6924 11.9753 47.3249 11.8435C47.9575 11.7117 49.8592 11.1734 50.5218 10.8852C51.1844 10.5971 52.0065 10.4806 52.4864 10.364C52.6358 10.3276 52.7552 10.3045 52.8478 10.2904C52.887 10.2844 52.908 10.2909 52.9117 10.3027C52.9117 10.3027 52.9117 10.3027 52.9117 10.3027C52.9163 10.3174 52.894 10.3403 52.8465 10.3572C52.6157 10.4392 52.274 10.5721 51.8782 10.7543C51.1402 11.0941 51.0219 11.0106 49.9994 11.3863C48.9769 11.762 48.3849 12.0591 47.1425 12.3751C45.9 12.6911 45.7057 13.0549 43.9321 13.4377C42.1584 13.8204 42.0672 14.1659 40.3605 14.7417C38.6538 15.3174 36.4344 15.8364 35.4025 16.1735C34.3705 16.5106 32.9895 16.9793 31.5088 17.4004C30.0282 17.8215 28.2451 18.4845 26.6026 18.9234C24.96 19.3623 22.6411 19.993 21.5641 20.2666C20.4873 20.5401 20.2251 20.6078 19.2169 20.9616C18.6373 21.165 17.8243 21.3983 17.1193 21.5371C16.7645 21.6069 16.826 21.5305 17.1635 21.3976C17.6571 21.2033 18.0793 21.0981 18.3191 20.9516C18.7984 20.659 19.0037 20.54 19.6838 20.4105C20.3638 20.281 20.6193 20.0123 21.0081 19.9125C21.3969 19.8126 21.4223 19.9161 23.3433 19.2297C25.2644 18.5433 26.3247 18.1899 27.0555 17.9408C27.7864 17.6916 29.3523 17.2988 30.5431 16.8916C31.7339 16.4844 34.184 15.7504 35.1517 15.3907C36.1194 15.031 36.1569 15.144 36.9719 14.9589ZM32.6461 25.4047C33.6939 24.6872 34.3085 23.8474 35.5616 22.9415C36.8148 22.0357 37.0934 22.0189 38.4783 20.9158C39.8632 19.8127 41.335 18.8217 41.9223 18.292C42.5095 17.7624 42.6932 17.8658 43.5562 17.1517C44.4192 16.4378 44.9734 16.0458 45.7892 15.5013C46.6051 14.9567 49.0268 13.1728 49.8485 12.4472C50.6703 11.7215 51.7426 11.0705 52.3578 10.6402C52.5494 10.5062 52.7037 10.4053 52.8243 10.3309C52.8754 10.2994 52.9049 10.2925 52.9124 10.3024C52.9124 10.3024 52.9124 10.3024 52.9124 10.3024C52.9218 10.3146 52.897 10.3526 52.8372 10.4008C52.547 10.6346 52.1198 10.9925 51.6311 11.4364C50.7201 12.264 50.5437 12.254 49.2606 13.3024C47.9775 14.3508 47.2519 15.0401 45.662 16.1688C44.072 17.2975 43.8922 17.7991 41.6075 19.3396C39.3228 20.8801 39.2766 21.2963 37.1235 22.9931C34.9704 24.69 32.1204 26.659 30.8161 27.6736C29.5119 28.6883 27.7703 30.0642 25.8853 31.4553C24.0002 32.8464 21.7643 34.6828 19.6669 36.1967C17.5696 37.7106 14.611 39.8595 13.2328 40.8374C11.8546 41.8153 11.5194 42.0545 10.2505 43.0711C9.52107 43.6554 8.48641 44.4214 7.57541 45.0199C7.11693 45.3211 7.18228 45.2024 7.60393 44.8472C8.22053 44.3277 8.76122 43.9464 9.04945 43.6401C9.62538 43.0282 9.87358 42.7726 10.7534 42.1998C11.6331 41.627 11.9154 41.1843 12.4127 40.8301C12.9101 40.476 12.9667 40.5665 15.3817 38.6169C17.7968 36.6672 19.1353 35.6175 20.0568 34.8882C20.9782 34.1589 22.9833 32.742 24.4843 31.5524C25.9853 30.3628 29.0964 28.0225 30.3099 27.026C31.5234 26.0295 31.5983 26.1221 32.6461 25.4047ZM47.9019 28.8091C47.6289 29.5166 47.7467 30.1694 47.4519 31.0427C47.1571 31.916 46.9691 32.0054 46.7109 33.0284C46.4527 34.0514 46.0582 35.0358 45.9898 35.5047C45.9214 35.9736 45.7215 35.9676 45.5783 36.6202C45.4351 37.2728 45.2989 37.6541 45.077 38.1969C44.8551 38.7399 44.3075 40.4464 44.2015 41.0938C44.0955 41.7412 43.7609 42.418 43.6066 42.8386C43.5586 42.9696 43.5152 43.0711 43.4784 43.1479C43.4628 43.1804 43.4462 43.1927 43.4343 43.1893C43.4343 43.1893 43.4343 43.1893 43.4343 43.1893C43.4195 43.185 43.412 43.1564 43.4228 43.1119C43.4752 42.896 43.5431 42.5704 43.5979 42.1784C43.7001 41.4476 43.8328 41.4027 44.0545 40.4399C44.2762 39.4771 44.3375 38.8779 44.7253 37.7816C45.113 36.6853 44.9089 36.349 45.52 34.8199C46.1311 33.2907 45.8881 33.0413 46.3014 31.4611C46.7148 29.8809 47.4458 27.9465 47.7049 26.9968C47.9641 26.0471 48.2962 24.767 48.7208 23.4372C49.1455 22.1074 49.5255 20.4242 50.0203 18.9638C50.5151 17.5035 51.2044 15.4359 51.5408 14.4858C51.8772 13.5358 51.9581 13.304 52.1908 12.3633C52.3245 11.8226 52.556 11.0913 52.8101 10.4905C52.938 10.1881 52.97 10.2742 52.9042 10.5967C52.8081 11.0683 52.6746 11.4397 52.6717 11.6961C52.6659 12.2085 52.6581 12.4247 52.4092 13.0019C52.1604 13.5792 52.2523 13.9114 52.1317 14.2549C52.0111 14.5985 51.9106 14.5633 51.4777 16.362C51.0448 18.1608 50.7844 19.1402 50.6095 19.8183C50.4347 20.4963 49.9414 21.8752 49.6577 22.9805C49.3739 24.0859 48.7026 26.3059 48.4962 27.2193C48.2899 28.1327 48.175 28.1016 47.9019 28.8091ZM36.9442 30.4061C37.7857 29.4284 38.1744 28.4468 39.1688 27.2309C40.1632 26.015 40.4304 25.9246 41.5039 24.4815C42.5774 23.0385 43.7635 21.6814 44.2032 21.0092C44.6428 20.337 44.8477 20.3889 45.51 19.4637C46.1722 18.5385 46.6142 18.0093 47.2729 17.2618C47.9316 16.5142 49.8449 14.1321 50.4641 13.2065C51.0832 12.2809 51.9652 11.3615 52.457 10.7786C52.6101 10.5971 52.7353 10.4577 52.8341 10.3532C52.876 10.3089 52.903 10.2944 52.9128 10.3019C52.9128 10.302 52.9128 10.302 52.9128 10.302C52.925 10.3114 52.9103 10.355 52.8641 10.4178C52.6398 10.7228 52.3132 11.1852 51.9481 11.7476C51.2674 12.7962 51.0931 12.8334 50.1052 14.1962C49.1172 15.5589 48.5827 16.4234 47.3159 17.9459C46.049 19.4684 45.9993 20.005 44.1585 22.1136C42.3178 24.2221 42.3769 24.6398 40.7036 26.8657C39.0302 29.0916 36.7458 31.768 35.7288 33.1034C34.7118 34.4389 33.3591 36.2426 31.8704 38.0993C30.3816 39.956 28.6625 42.3398 26.9976 44.3727C25.3328 46.4055 22.9876 49.286 21.8894 50.6053C20.7912 51.9246 20.5244 52.2468 19.5423 53.5747C18.9778 54.338 18.1613 55.3595 17.4234 56.1849C17.052 56.6003 17.086 56.4673 17.408 56.0091C17.8788 55.3389 18.3102 54.8236 18.5144 54.4486C18.9225 53.6993 19.1004 53.3842 19.8143 52.5922C20.5282 51.8001 20.6925 51.2936 21.0885 50.8163C21.4845 50.339 21.5624 50.4122 23.4277 47.8704C25.2931 45.3285 26.3347 43.9498 27.0501 42.9941C27.7655 42.0385 29.3647 40.1248 30.5296 38.5666C31.6945 37.0084 34.1404 33.9008 35.0735 32.6071C36.0066 31.3135 36.1027 31.3838 36.9442 30.4061ZM23.1941 44.625C22.3921 44.603 21.78 44.9313 20.8046 44.9439C19.8293 44.9565 19.6749 44.8089 18.5625 44.9058C17.4501 45.0028 16.3293 44.9582 15.8366 45.0497C15.344 45.1413 15.2809 44.9508 14.5787 45.0329C13.8766 45.115 13.4482 45.1134 12.8285 45.0848C12.2088 45.0562 10.3127 45.1077 9.6286 45.2231C8.9445 45.3386 8.15191 45.2482 7.67796 45.2427C7.53033 45.241 7.41383 45.2338 7.32431 45.2247C7.28639 45.2208 7.26832 45.2093 7.26763 45.1969C7.26763 45.1969 7.26763 45.1969 7.26763 45.1969C7.26679 45.1815 7.29287 45.1649 7.34108 45.1603C7.57507 45.1378 7.92419 45.0935 8.33516 45.0148C9.10143 44.868 9.19218 44.9781 10.2318 44.8668C11.2713 44.7555 11.8917 44.614 13.1222 44.6149C14.3527 44.6157 14.6184 44.3112 16.3591 44.3787C18.0996 44.4462 18.2651 44.134 19.9884 43.998C21.7117 43.862 23.899 43.9077 24.9384 43.8361C25.9778 43.7645 27.3729 43.6517 28.8497 43.6096C30.3264 43.5676 32.1411 43.3658 33.7728 43.3465C35.4044 43.3272 37.7105 43.2892 38.777 43.2904C39.8434 43.2915 40.1033 43.2907 41.1245 43.1971C41.7115 43.1432 42.5229 43.1182 43.2116 43.1579C43.5582 43.1779 43.4832 43.2367 43.138 43.282C42.6331 43.3483 42.2155 43.346 41.9581 43.4286C41.4437 43.5937 41.2247 43.6582 40.5613 43.6156C39.898 43.573 39.5975 43.7702 39.2123 43.7709C38.827 43.7715 38.8274 43.665 36.8788 43.8553C34.9302 44.0456 33.8606 44.1259 33.122 44.1866C32.3835 44.2474 30.8339 44.241 29.6303 44.3412C28.4267 44.4415 25.9744 44.5471 24.9895 44.6565C24.0047 44.7658 23.9961 44.6471 23.1941 44.625ZM28.8624 50.8895C28.2526 51.1226 27.9286 51.6153 27.2032 51.9347C26.4778 52.2541 26.3017 52.1683 25.5082 52.6079C24.7147 53.0475 23.857 53.3608 23.5255 53.5997C23.194 53.8387 23.0687 53.685 22.5764 53.9815C22.0841 54.278 21.7626 54.4119 21.2867 54.5815C20.8108 54.751 19.4117 55.3966 18.9466 55.7179C18.4814 56.0392 17.8508 56.207 17.4935 56.3516C17.3822 56.3966 17.2921 56.4269 17.2213 56.4468C17.1913 56.4553 17.173 56.4504 17.1674 56.4394C17.1674 56.4394 17.1674 56.4394 17.1674 56.4394C17.1605 56.4256 17.1732 56.4023 17.2075 56.3828C17.3735 56.2885 17.6169 56.1378 17.8924 55.9363C18.4063 55.5605 18.5194 55.6323 19.2524 55.2026C19.9855 54.7729 20.3922 54.4479 21.3143 54.0602C22.2363 53.6725 22.3106 53.311 23.642 52.823C24.9734 52.335 24.9694 51.9981 26.2045 51.33C27.4395 50.6619 29.0966 50.0129 29.8458 49.6194C30.595 49.226 31.5937 48.6827 32.6826 48.1781C33.7715 47.6735 35.0482 46.9166 36.2624 46.3838C37.4766 45.8511 39.1884 45.0883 39.9876 44.7526C40.7868 44.417 40.9811 44.3342 41.7077 43.9264C42.1253 43.692 42.7228 43.4129 43.255 43.2317C43.5228 43.1405 43.4907 43.2178 43.2506 43.3682C42.8996 43.588 42.5859 43.7177 42.4269 43.8743C42.1092 44.1872 41.9716 44.3152 41.4573 44.4858C40.943 44.6564 40.7987 44.9311 40.5104 45.0533C40.2221 45.1755 40.1787 45.0783 38.7972 45.867C37.4155 46.6558 36.6473 47.0667 36.119 47.3553C35.5907 47.6438 34.4274 48.1273 33.567 48.5987C32.7065 49.0701 30.9129 49.9407 30.22 50.3513C29.5272 50.7619 29.4721 50.6564 28.8624 50.8895ZM11.3899 50.3491C11.2213 50.057 10.8287 50.0559 10.5936 49.726C10.3584 49.3961 10.4355 49.2478 10.1041 48.9246C9.77276 48.6014 9.54758 48.1844 9.36369 48.0725C9.1798 47.9606 9.31083 47.8163 9.08567 47.6258C8.86053 47.4352 8.76262 47.2858 8.6412 47.0526C8.51976 46.8195 8.04189 46.1955 7.79541 46.0327C7.54893 45.8698 7.43472 45.5371 7.32935 45.3693C7.29653 45.317 7.27503 45.2721 7.26133 45.2352C7.25553 45.2195 7.26017 45.2058 7.26945 45.1977C7.26945 45.1977 7.26946 45.1977 7.26946 45.1977C7.28102 45.1875 7.29974 45.1859 7.31443 45.1996C7.3857 45.2662 7.50034 45.3587 7.65556 45.4506C7.945 45.6218 7.88179 45.724 8.2073 46.0127C8.53281 46.3014 8.78449 46.4254 9.0684 46.8524C9.3523 47.2794 9.64652 47.1757 9.99747 47.8223C10.3484 48.4688 10.6253 48.3256 11.1279 48.8353C11.6304 49.345 12.1014 50.1324 12.3965 50.4465C12.6916 50.7607 13.1004 51.1717 13.4741 51.6564C13.8478 52.1411 14.4217 52.6403 14.8138 53.1933C15.2059 53.7463 15.7683 54.521 16.0141 54.8913C16.2598 55.2616 16.3205 55.3511 16.6283 55.6448C16.8052 55.8137 17.012 56.0787 17.1409 56.3429C17.2058 56.4759 17.1435 56.4877 17.029 56.3972C16.8616 56.2648 16.7668 56.1186 16.6441 56.0825C16.3989 56.0103 16.2989 55.9759 16.1781 55.7187C16.0573 55.4614 15.837 55.4841 15.7474 55.351C15.6578 55.2178 15.7394 55.1495 15.1432 54.5966C14.5471 54.0436 14.2383 53.7246 14.0211 53.5077C13.8038 53.2908 13.4503 52.7498 13.0954 52.3971C12.7404 52.0444 12.0925 51.2625 11.7811 50.9915C11.4698 50.7205 11.5586 50.6412 11.3899 50.3491Z" fill="#9D4D2A"/>
</svg>
