<?xml version="1.0" encoding="UTF-8" standalone="no"?>
<!-- Created with Inkscape (http://www.inkscape.org/) -->

<svg
   width="3.7073441mm"
   height="3.7075093mm"
   viewBox="0 0 3.7073441 3.7075093"
   version="1.1"
   id="svg1"
   xml:space="preserve"
   xmlns="http://www.w3.org/2000/svg"
   xmlns:svg="http://www.w3.org/2000/svg"><defs
     id="defs1" /><path
     fill="#fc7f7f"
     d="m 0.98839932,0.26625464 a 0.52916667,0.52916667 0 1 0 -0.72231,0.72231 V 2.7192046 a 0.52916667,0.52916667 0 1 0 0.72231,0.72205 H 2.7190393 a 0.52916667,0.52916667 0 1 0 0.72205,-0.72231 V 0.98830464 a 0.52916667,0.52916667 0 1 0 -0.72231,-0.72205 z m 0.18070998,0.52917 h 1.54967 a 0.52916667,0.52916667 0 0 0 0.19288,0.19314 V 2.5379646 L 1.1688493,0.79542464 Z M 0.79498932,1.1695446 2.5372693,2.9120846 H 0.98760932 a 0.52916667,0.52916667 0 0 0 -0.19288,-0.19314 v -1.5494 z"
     id="path1-1"
     style="display:inline;fill:#d5aaf4;fill-opacity:1;stroke:none;stroke-width:0.264583;stroke-opacity:1" /></svg>
