<?xml version="1.0" encoding="UTF-8" standalone="no"?>
<!-- Created with Inkscape (http://www.inkscape.org/) -->

<svg
   width="3.6971741mm"
   height="3.70416mm"
   viewBox="0 0 3.6971741 3.70416"
   version="1.1"
   id="svg1"
   xml:space="preserve"
   xmlns="http://www.w3.org/2000/svg"
   xmlns:svg="http://www.w3.org/2000/svg"><defs
     id="defs1" /><path
     fill="#fc7f7f"
     d="m 1.8485871,0 a 1.8520833,1.8520833 0 0 0 0,3.70416 1.8520833,1.8520833 0 0 0 0,-3.70416 z m 0.51621,0.35295 a 1.5875,1.5875 0 0 1 1.07156,1.49913 h -1.85209 a 0.52916667,0.52916667 0 0 0 -0.25135,-0.44979 c 0.35613,-0.53684 0.68898,-0.86334 1.03188,-1.0496 z M 0.55821705,0.92974 c 0.0386,0.17198 0.0947,0.33946 0.18098,0.49848 a 0.52916667,0.52916667 0 0 0 -0.21352,0.42386 h -0.26459 a 1.5875,1.5875 0 0 1 0.29713,-0.92234 z m 0.17912,1.34567 a 0.52916667,0.52916667 0 0 0 0.63500005,0 c 0.38947,0.53631 0.72179,0.8636 1.00542,1.05834 A 1.5875,1.5875 0 0 1 0.48598705,2.67229 c 0.0661,-0.15875 0.13229,-0.26458 0.25135,-0.39688 z"
     id="path1-4"
     style="display:inline;fill:#d5aaf4;fill-opacity:1;stroke-width:0.264583" /></svg>
